HIERARCHY
ROOT Hips
{
	OFFSET 0.00000 0.00000 0.00000
	CHANNELS 6 Xposition Yposition Zposition Zrotation Yrotation Xrotation 
	JOINT LHipJoint
	{
		OFFSET 0 0 0
		CHANNELS 3 Zrotation Yrotation Xrotation
		JOINT LeftUpLeg
		{
			OFFSET 1.75344 -1.53157 0.77399
			CHANNELS 3 Zrotation Yrotation Xrotation
			JOINT LeftLeg
			{
				OFFSET 2.25415 -6.19323 0.00000
				CHANNELS 3 Zrotation Yrotation Xrotation
				JOINT LeftFoot
				{
					OFFSET 2.30342 -6.32861 0.00000
					CHANNELS 3 Zrotation Yrotation Xrotation
					JOINT LeftToeBase
					{
						OFFSET 0.10958 -0.30108 1.49206
						CHANNELS 3 Zrotation Yrotation Xrotation
						End Site
						{
							OFFSET 0.00000 -0.00000 0.77783
						}
					}
				}
			}
		}
	}
	JOINT RHipJoint
	{
		OFFSET 0 0 0
		CHANNELS 3 Zrotation Yrotation Xrotation
		JOINT RightUpLeg
		{
			OFFSET -1.81912 -1.53156 0.77399
			CHANNELS 3 Zrotation Yrotation Xrotation
			JOINT RightLeg
			{
				OFFSET -2.22882 -6.12365 0.00000
				CHANNELS 3 Zrotation Yrotation Xrotation
				JOINT RightFoot
				{
					OFFSET -2.21943 -6.09785 0.00000
					CHANNELS 3 Zrotation Yrotation Xrotation
					JOINT RightToeBase
					{
						OFFSET -0.18931 -0.52012 1.59379
						CHANNELS 3 Zrotation Yrotation Xrotation
						End Site
						{
							OFFSET -0.00000 -0.00000 0.84686
						}
					}
				}
			}
		}
	}
	JOINT LowerBack
	{
		OFFSET 0 0 0
		CHANNELS 3 Zrotation Yrotation Xrotation
		JOINT Spine
		{
			OFFSET -0.00200 1.66634 -0.14248
			CHANNELS 3 Zrotation Yrotation Xrotation
			JOINT Spine1
			{
				OFFSET -0.00875 1.64542 0.09514
				CHANNELS 3 Zrotation Yrotation Xrotation
				JOINT Neck
				{
					OFFSET 0 0 0
					CHANNELS 3 Zrotation Yrotation Xrotation
					JOINT Neck1
					{
						OFFSET 0.02257 1.59605 0.00839
						CHANNELS 3 Zrotation Yrotation Xrotation
						JOINT Head
						{
							OFFSET -0.10214 1.57530 -0.23335
							CHANNELS 3 Zrotation Yrotation Xrotation
							End Site
							{
								OFFSET -0.03588 1.60717 -0.08062
							}
						}
					}
				}
				JOINT LeftShoulder
				{
					OFFSET 0 0 0
					CHANNELS 3 Zrotation Yrotation Xrotation
					JOINT LeftArm
					{
						OFFSET 2.54983 1.10186 0.40078
						CHANNELS 3 Zrotation Yrotation Xrotation
						JOINT LeftForeArm
						{
							OFFSET 4.28840 -0.00000 0.00000
							CHANNELS 3 Zrotation Yrotation Xrotation
							JOINT LeftHand
							{
								OFFSET 3.06552 -0.00000 -0.00000
								CHANNELS 3 Zrotation Yrotation Xrotation
								JOINT LeftFingerBase
								{
									OFFSET 0 0 0
									CHANNELS 3 Zrotation Yrotation Xrotation
									JOINT LeftHandIndex1
									{
										OFFSET 0.75304 -0.00000 0.00000
										CHANNELS 3 Zrotation Yrotation Xrotation
										End Site
										{
											OFFSET 0.60712 -0.00000 0.00000
										}
									}
								}
								JOINT LThumb
								{
									OFFSET 0 0 0
									CHANNELS 3 Zrotation Yrotation Xrotation
									End Site
									{
										OFFSET 0.61639 -0.00000 0.61639
									}
								}
							}
						}
					}
				}
				JOINT RightShoulder
				{
					OFFSET 0 0 0
					CHANNELS 3 Zrotation Yrotation Xrotation
					JOINT RightArm
					{
						OFFSET -2.60909 1.35448 0.21802
						CHANNELS 3 Zrotation Yrotation Xrotation
						JOINT RightForeArm
						{
							OFFSET -4.52172 -0.00000 -0.00000
							CHANNELS 3 Zrotation Yrotation Xrotation
							JOINT RightHand
							{
								OFFSET -2.89140 -0.00000 0.00000
								CHANNELS 3 Zrotation Yrotation Xrotation
								JOINT RightFingerBase
								{
									OFFSET 0 0 0
									CHANNELS 3 Zrotation Yrotation Xrotation
									JOINT RightHandIndex1
									{
										OFFSET -0.68054 -0.00000 0.00000
										CHANNELS 3 Zrotation Yrotation Xrotation
										End Site
										{
											OFFSET -0.54867 -0.00000 0.00000
										}
									}
								}
								JOINT RThumb
								{
									OFFSET 0 0 0
									CHANNELS 3 Zrotation Yrotation Xrotation
									End Site
									{
										OFFSET -0.55705 -0.00000 0.55705
									}
								}
							}
						}
					}
				}
			}
		}
	}
}
MOTION
Frames: 6
Frame Time: .0083333
7.8974 15.2034 40.018 0 0 0 0 0 0 -21 0 0 0 0 0 0 0 0 0 0 0 0 0 0 21 0 0 0 0 0 0 0 0 0 0 0 0 0 0 0 0 0 0 0 0 0 0 -16 0 0 21 0 0 11 0 0 0 -8 0 0 0 0 0 0 0 0 0 0 0 0 0 0 0 0 0 0 0 0 8 0 0 0 0 0 0 0 0 0 0 0 0 0 0 0 0 0
7.8974 15.2034 40.0180 -179.8010 -1.1620 -179.7560 0.0000 0.0000 0.0000 -24.8186 -27.1923 2.2091 2.4048 9.6628 27.8914 2.5098 6.2820 -32.6528 0.5163 -4.6054 -12.7863 0.0000 0.0000 0.0000 28.9711 13.6101 0.4865 -2.6456 -10.0979 29.2943 -5.4008 -15.0235 -50.2645 -3.9932 -12.1513 36.2695 0.5149 0.6033 7.0951 0.1351 0.7790 -4.6801 -0.2540 0.3102 -8.9330 -2.9259 -0.5140 -9.5275 2.2922 -0.4872 4.6507 1.2429 -0.2081 3.2080 0.0000 -0.0000 0.0000 -81.9519 31.4310 31.8888 18.8730 -29.2605 -4.9686 -0.0000 -0.0000 18.1668 -21.3572 -18.7143 7.1511 -7.1250 0.0000 -0.0000 -30.4954 11.4461 28.3162 0.0000 -0.0000 0.0000 74.6773 -26.2085 40.0496 -17.3137 27.2695 -4.2301 0.0000 0.0000 15.0978 -11.1381 -50.4513 8.6324 7.1250 -0.0000 -0.0000 58.2435 -74.4483 -43.7387
7.8884 15.1545 40.0292 -179.5540 -1.1789 -179.7130 0.0000 0.0000 0.0000 -24.2301 -26.7253 0.7296 2.7090 10.2083 29.6539 2.6028 5.6582 -32.8704 0.8006 -5.7107 -15.9473 0.0000 0.0000 0.0000 29.2976 15.5451 1.2051 -2.3615 -9.5815 27.6320 -2.9558 -20.3163 -44.3118 -2.4374 -9.7231 28.0847 0.8468 0.4949 7.0029 0.1663 0.6732 -4.6142 -0.3909 0.2413 -8.8043 -3.6346 -0.5612 -9.5636 3.1911 -0.5259 4.6007 1.6681 -0.2057 3.2154 -0.0000 -0.0000 0.0000 -82.6137 31.3210 30.0367 18.3074 -28.5490 -4.6952 -0.0000 -0.0000 18.9602 -14.9649 -24.7057 6.3745 -7.1250 0.0000 -0.0000 -26.2938 6.4165 26.1968 -0.0000 -0.0000 0.0000 75.0944 -26.4167 39.5038 -17.2929 27.2423 -4.2205 0.0000 0.0000 15.1395 -10.1914 -50.5416 7.9022 7.1250 -0.0000 -0.0000 59.1770 -74.1322 -44.2105
7.8853 15.1200 40.0335 -179.3460 -1.1306 -179.7190 0.0000 0.0000 0.0000 -23.9056 -26.4741 0.4893 2.7118 10.2132 29.6700 2.5699 5.6244 -32.6658 0.8322 -5.8197 -16.2620 0.0000 0.0000 0.0000 29.6081 16.5615 1.2853 -2.3523 -9.5642 27.5766 -2.6488 -21.7807 -44.2543 -2.1878 -9.2468 26.5704 1.0678 0.4906 6.9860 0.1934 0.6940 -4.5901 -0.4891 0.2396 -8.7658 -3.2925 -0.6041 -9.1532 2.8584 -0.6098 4.1130 1.4828 -0.2565 2.9646 -0.0000 -0.0000 0.0000 -82.8828 31.3968 28.9226 18.0251 -28.1893 -4.5611 -0.0000 -0.0000 19.7182 -12.3089 -27.3255 5.7198 -7.1250 0.0000 -0.0000 -24.6223 4.0651 25.3272 -0.0000 -0.0000 0.0000 75.7977 -26.6688 38.1581 -17.1640 27.0734 -4.1617 0.0000 0.0000 15.8336 -6.6303 -51.0178 5.1631 7.1250 -0.0000 -0.0000 62.9953 -73.0165 -46.3116
7.8833 15.1334 40.0272 -179.7210 -1.0316 -179.8380 0.0000 0.0000 0.0000 -24.4570 -26.4746 0.6529 2.7479 10.2753 29.8729 2.5666 5.9885 -32.8282 0.8430 -5.8565 -16.3687 0.0000 0.0000 0.0000 29.1780 15.7439 1.5538 -2.3066 -9.4776 27.3009 -2.8069 -20.9882 -44.2422 -2.1548 -9.1813 26.3641 0.7101 0.5608 6.9930 0.0818 0.7455 -4.5243 -0.4138 0.2851 -8.7002 -3.9963 -0.7497 -9.3472 3.6052 -0.7662 4.2165 1.8535 -0.3181 3.0607 0.0000 0.0000 0.0000 -83.2250 31.3723 27.7315 17.6663 -27.7278 -4.3929 -0.0000 -0.0000 20.5778 -11.1689 -28.1100 5.3148 -7.1250 0.0000 -0.0000 -23.9532 3.3479 24.8313 0.0000 0.0000 0.0000 76.5707 -26.8712 36.6337 -16.9074 26.7355 -4.0456 0.0000 0.0000 16.3993 -2.1127 -51.9194 1.6633 7.1250 -0.0000 -0.0000 68.4121 -71.7332 -49.6403
7.8825 15.1914 40.0374 -179.4680 -0.9675 -179.5910 0.0000 0.0000 0.0000 -23.9677 -26.4181 0.3193 2.7316 10.2473 29.7814 2.5051 6.1725 -32.5693 0.8082 -5.7373 -16.0240 0.0000 0.0000 0.0000 29.2766 13.9542 1.1837 -2.3105 -9.4849 27.3244 -5.0193 -16.2137 -49.5250 -3.7849 -11.8685 35.2685 0.9565 0.6078 6.9552 0.1674 0.8338 -4.6481 -0.4740 0.3115 -8.8096 -3.8455 -0.8281 -9.1230 3.3497 -0.8756 3.9028 1.7297 -0.3810 2.9096 0.0000 0.0000 0.0000 -83.5977 31.3312 26.4783 17.2421 -27.1758 -4.1973 -0.0000 -0.0000 21.2207 -9.9383 -28.7838 4.8225 -7.1250 0.0000 -0.0000 -23.2506 2.7210 24.2403 0.0000 0.0000 0.0000 77.1705 -27.0324 35.7182 -16.5742 26.2931 -3.8969 0.0000 0.0000 16.2549 -0.6479 -52.5253 0.5142 7.1250 -0.0000 -0.0000 70.9695 -71.4200 -51.5898
